<svg
  width="24"
  height="24"
  viewBox="0 0 24 24"
  fill="none"
  xmlns="http://www.w3.org/2000/svg"
>
  <path
    d="M13.8245 4.3099C14.0754 4.07722 14.0754 3.69068 13.8245 3.45799L12.0292 1.77799C11.7783 1.54531 11.3686 1.54531 11.1177 1.77799L2.14719 10.043C1.62425 10.5283 1.27273 11.1717 1.14443 11.884L0.211707 16.3316C0.0612143 17.1352 0.730118 17.8549 1.53039 17.7149L5.96252 16.8453C6.6718 16.7171 7.3129 16.3653 7.79685 15.842L13.8245 4.3099Z"
    fill="hsl(26, 100%, 60%)"
  />
  <path
    d="M19.8528 4.3099C20.1037 4.07722 20.1037 3.69068 19.8528 3.45799L18.0575 1.77799C17.8066 1.54531 17.3969 1.54531 17.146 1.77799L8.17549 10.043C7.65255 10.5283 7.30103 11.1717 7.17273 11.884L6.24001 16.3316C6.08951 17.1352 6.75842 17.8549 7.55869 17.7149L11.9908 16.8453C12.7001 16.7171 13.3412 16.3653 13.8251 15.842L19.8528 4.3099Z"
    fill="hsl(240, 6%, 10%)"
    opacity="0.5"
  />
  <path
    d="M21.993 19.8822C21.993 20.4345 21.5453 20.8822 20.993 20.8822H8.99297C8.44068 20.8822 7.99297 20.4345 7.99297 19.8822C7.99297 19.3299 8.44068 18.8822 8.99297 18.8822H20.993C21.5453 18.8822 21.993 19.3299 21.993 19.8822Z"
    fill="hsl(240, 6%, 10%)"
    opacity="0.5"
  />
</svg>
